<svg width="113.4" height="90.57999999999998" xmlns="http://www.w3.org/2000/svg">
 
 <path fill="black" d="M37.22,72.28999999999999Q37.44,71.85999999999999,37.66,71.85999999999999Q38.09,71.85999999999999,38.09,72.93999999999998Q38.09,76.38999999999999,35.32,78.65999999999998Q32.54,80.92999999999998,30.13,80.92999999999998Q27.72,80.92999999999998,25.99,79.55999999999999Q23.4,84.66999999999999,19.84,87.61999999999999Q16.27,90.57999999999998,10.66,90.57999999999998Q7.06,90.57999999999998,4.79,88.37999999999998Q2.52,86.17999999999999,2.52,81.67999999999998Q2.52,77.17999999999998,4.57,72.39999999999998Q6.62,67.60999999999999,10.76,64.14999999999998Q14.9,60.69999999999999,20.02,60.69999999999999Q28.58,60.69999999999999,28.58,69.76999999999998Q28.58,73.21999999999998,27.07,77.03999999999999Q28.15,78.54999999999998,30.17,78.54999999999998Q33.91,78.54999999999998,37.22,72.28999999999999ZM24.77,67.82H25.2Q24.91,64.00999999999999,21.74,64.00999999999999Q16.78,64.00999999999999,12.02,73.65999999999998Q9.43,78.97999999999999,9.43,83.29999999999998Q9.43,87.61999999999999,13.18,87.83999999999999Q16.27,87.83999999999999,18.9,84.55999999999999Q21.53,81.28999999999999,23.33,77.32999999999998Q20.88,75.23999999999998,20.88,72.07Q20.88,70.12999999999998,21.92,68.97999999999999Q22.97,67.82,24.77,67.82ZM61.7,62.77999999999999L65.59,62.859999999999985Q66.82,62.859999999999985,67.03,62.77999999999999Q64.37,64.36999999999999,60.7,74.87999999999998Q58.61,80.41999999999999,58.61,83.33999999999999Q58.61,86.25999999999999,60.77,86.25999999999999Q63.29,86.25999999999999,65.92,83.33999999999999Q68.54,80.41999999999999,69.88,77.75999999999999Q71.21,75.09999999999998,72,72.93999999999998Q71.64,71.13999999999999,71.64,68.53999999999999Q71.64,65.94999999999999,72.97,63.499999999999986Q74.3,61.05999999999999,76.32,61.05999999999999Q78.62,61.05999999999999,78.62,64.29999999999998Q78.62,67.17999999999998,77.9,68.82999999999998Q77.18,70.48999999999998,76.46,71.88999999999999Q75.74,73.29999999999998,75.46,73.86999999999999Q75.46,75.95999999999998,76.57,77.25999999999999Q77.69,78.54999999999998,79.13,78.54999999999998Q82.51,78.54999999999998,85.97,72.28999999999999Q86.18,71.92999999999998,86.36,71.92999999999998Q86.54,71.92999999999998,86.54,72.93999999999998Q86.54,76.82,83.88,78.90999999999998Q81.22,80.99999999999999,78.55,80.99999999999999Q74.66,80.99999999999999,73.44,76.96999999999998L73.22,76.24999999999999Q68.76,84.01999999999998,65.34,87.25999999999999Q61.92,90.49999999999999,57.24,90.49999999999999Q51.19,90.49999999999999,51.19,83.65999999999998Q51.19,82.43999999999998,51.48,80.85999999999999Q44.64,90.42999999999999,38.09,90.42999999999999Q36.29,90.42999999999999,35.1,88.84999999999998Q33.91,87.25999999999999,33.91,84.41999999999999Q33.91,81.57999999999998,35.93,75.59999999999998Q39.74,64.07999999999998,44.28,62.139999999999986Q46.44,61.19999999999999,50.33,61.19999999999999Q50.54,61.19999999999999,50.54,61.48999999999998Q50.54,61.26999999999998,50.04,61.98999999999998Q47.3,65.87999999999998,44.42,72.28999999999999Q43.85,73.72999999999999,42.62,77.32999999999998Q41.4,80.92999999999998,41.4,83.33999999999999Q41.4,85.74999999999999,43.2,85.74999999999999Q46.8,85.74999999999999,53.64,72.64999999999998Q56.52,67.1,56.59,67.02999999999999Q59.26,62.77999999999999,61.7,62.77999999999999ZM118.3,72.28999999999999Q118.51,71.85999999999999,118.73,71.85999999999999Q119.16,71.85999999999999,119.16,72.93999999999998Q119.16,76.38999999999999,116.39,78.65999999999998Q113.62,80.92999999999998,111.2,80.92999999999998Q108.79,80.92999999999998,107.06,79.55999999999999Q104.47,84.66999999999999,100.91,87.61999999999999Q97.34,90.57999999999998,91.73,90.57999999999998Q88.13,90.57999999999998,85.86,88.37999999999998Q83.59,86.17999999999999,83.59,81.67999999999998Q83.59,77.17999999999998,85.64,72.39999999999998Q87.7,67.60999999999999,91.84,64.14999999999998Q95.98,60.69999999999999,101.09,60.69999999999999Q109.66,60.69999999999999,109.66,69.76999999999998Q109.66,73.21999999999998,108.14,77.03999999999999Q109.22,78.54999999999998,111.24,78.54999999999998Q114.98,78.54999999999998,118.3,72.28999999999999ZM105.84,67.82H106.27Q105.98,64.00999999999999,102.82,64.00999999999999Q97.85,64.00999999999999,93.1,73.65999999999998Q90.5,78.97999999999999,90.5,83.29999999999998Q90.5,87.61999999999999,94.25,87.83999999999999Q97.34,87.83999999999999,99.97,84.55999999999999Q102.6,81.28999999999999,104.4,77.32999999999998Q101.95,75.23999999999998,101.95,72.07Q101.95,70.12999999999998,103,68.97999999999999Q104.04,67.82,105.84,67.82Z"/>
 
</svg>