<?xml version="1.0" encoding="utf-8"?>
<!-- Generator: Adobe Illustrator 23.0.3, SVG Export Plug-In . SVG Version: 6.00 Build 0)  -->
<svg version="1.1" id="Layer_1" xmlns="http://www.w3.org/2000/svg" xmlns:xlink="http://www.w3.org/1999/xlink" x="0px" y="0px"
	 viewBox="0 0 100 100" style="enable-background:new 0 0 100 100;" xml:space="preserve">
<style type="text/css">
	.st0{fill:#FFFFFF;}
	.st1{fill:#F9061B;}
</style>
<rect x="15.9" y="16.5" class="st0" width="68.9" height="68.9"/>
<path id="path819" class="st1" d="M49.7,1.3C22.9,1.6,1.4,23.5,1.6,50.3s22,48.4,48.8,48.3s48.5-21.8,48.5-48.7v-0.7
	C98.5,22.5,76.5,1,49.7,1.3z M49.9,24.9L49.9,24.9c13.9-0.1,25.3,11,25.5,24.9v0.3c0,13.9-11.2,25.2-25.1,25.2S25.1,64.1,25,50.3
	C24.8,36.4,36,25,49.9,24.9L49.9,24.9z M50.6,27c-12.7,0-23,10.2-23.1,22.9C27.4,62.6,37.6,73,50.3,73.1s23.1-10,23.3-22.7v-0.3
	C73.6,37.4,63.3,27.1,50.6,27L50.6,27z M41.4,37.8l21.9,12.3l-22.1,12L41.4,37.8z"/>
<rect x="34.2" y="33.8" class="st1" width="32.6" height="32.6"/>
<g>
	<path class="st0" d="M40.4,61.7H47v-23h-6.6V61.7z M53.5,38.7v23h6.6v-23H53.5z"/>
</g>
</svg>
